<svg width="76" height="48" viewBox="0 0 76 48" fill="none" xmlns="http://www.w3.org/2000/svg">
<path fill-rule="evenodd" clip-rule="evenodd" d="M61.5527 24C61.5527 37.2582 51.0217 48 38.0238 48C27.7241 48 18.9817 41.2529 15.7901 31.8637H45.0084C45.6714 31.4076 45.2706 30.3539 44.9776 30.2752H15.3121C14.7878 28.2778 14.4949 26.1704 14.4949 24C14.5103 10.7418 25.0413 0 38.0392 0C48.3697 0 57.1429 6.7942 60.3037 16.2306H70.4323C70.4323 16.2306 71.0953 17.017 70.4323 17.8033H60.7956L60.3026 16.2317C60.0864 16.3088 30.9312 16.2464 30.9312 16.2464C30.9312 16.2464 30.3299 17.017 30.9312 17.8034H60.7663C61.2751 19.7693 61.5527 21.8768 61.5527 24ZM3.85467 31.093C3.85467 32.1782 2.99122 33.0589 1.92733 33.0589C0.863446 33.0589 0 32.1782 0 31.093C0 30.0078 0.863446 29.1271 1.92733 29.1271C2.99122 29.1271 3.85467 30.0078 3.85467 31.093ZM74.0727 18.983C75.1366 18.983 76 18.1023 76 17.0171C76 15.9319 75.1366 15.0511 74.0727 15.0511C73.0088 15.0511 72.1454 15.9319 72.1454 17.0171C72.1454 18.1023 73.0088 18.983 74.0727 18.983ZM5.65813 31.8321H15.7882L15.2948 30.2594H5.65813C4.99513 31.0458 5.65813 31.8321 5.65813 31.8321Z" fill="#EFEFF0"/>
</svg>
