<svg width="1920" height="264" viewBox="0 0 1920 264" fill="none" xmlns="http://www.w3.org/2000/svg">
<g clip-path="url(#clip0_717_2103)">
<path d="M1920.06 179.798V161.56C1916.1 161.334 1910.55 161.318 1904.01 161.85C1900.14 162.173 1896.51 159.754 1892.06 160.528C1889.67 160.947 1886.62 164.35 1884.12 164.93C1881.2 165.607 1878.24 166.398 1875.24 167.333C1872.75 165.011 1870.17 162.802 1868.91 162.818C1868.83 162.818 1868.75 162.85 1868.67 162.85L1868.7 162.818C1868.7 162.818 1864.04 162.979 1862.39 163.463C1861.54 163.721 1861.04 164.608 1860.76 165.624C1860.52 165.672 1860.26 165.736 1860.02 165.769C1857.85 166.027 1855.59 168.042 1853.39 169.494C1850.33 169.913 1846.97 170.832 1844.75 172.783C1843.97 173.348 1842.99 174.428 1841.97 175.573C1837.89 173.461 1832.74 170.752 1826.28 168.849C1818.66 166.591 1808 167.349 1799.58 164.753C1795.11 163.366 1790.48 160.415 1786.17 159.093C1770.43 154.255 1756.73 151.755 1751.18 151.046C1749.88 151.352 1748.57 151.836 1747.26 152.449C1742.47 154.158 1734.13 157.109 1727.21 159.496C1716.82 163.06 1712.21 165.511 1704.43 171.042C1696.09 172.284 1690.88 175.638 1685.48 179.153C1675.9 176.992 1644.34 161.028 1636.49 160.189C1615.84 157.964 1598.38 157.012 1587.08 151.159C1566.25 140.87 1531.03 124.857 1516.94 121.697C1515.77 121.519 1514.61 121.39 1513.48 121.277C1515.26 120.761 1516.29 120.423 1516.19 120.326C1516.19 120.326 1490.5 118.794 1480.11 122.374C1469.72 125.938 1462.31 134.646 1452.46 133.63C1442.62 132.614 1437.47 133.081 1429.26 137.677C1423.11 139.403 1410.21 146.901 1398.34 154.577C1382.03 151.384 1357.25 140.112 1334.23 137.919C1332.89 138.226 1331.54 138.58 1330.18 138.935C1330.71 138.274 1331.39 137.516 1332.24 136.678C1321.86 140.241 1315.1 139.758 1302.85 145.305C1293.01 144.289 1289.61 147.385 1281.41 151.981C1272.93 154.368 1260.33 161.786 1248.75 170.155C1243.94 171.123 1230.74 174.235 1216.73 181.362C1207.06 186.265 1198.19 193.441 1189.14 193.118C1179.35 192.764 1164.77 192.747 1152.97 193.328C1134.5 188.039 1117.82 182.685 1102.81 177.944C1090.43 174.412 1034.15 182.443 1020.29 185.91C1003.79 180.621 962.186 205.89 948.942 206.148C939.892 206.325 903.951 193.054 893.449 200.327C892.901 208.18 846.7 215.904 831.133 223.693C801.354 221.968 828.036 229.918 792.643 223.048C771.51 224.29 745.151 231.837 729.907 233.594C723.599 234.32 709.258 227.999 703.612 227.483C692.788 226.499 688.416 225.322 678.544 223.209C674.608 220.613 650.265 215.711 634.521 215.017C627.858 218.259 620.938 221.387 614.469 224.128C607.081 219.613 602.225 214.614 595.531 216.001C585.352 209.099 576.576 203.826 571.543 203.536L571.43 203.487C569.914 202.987 563.864 206.503 554.847 209.405C544.861 204.116 538.021 202.294 538.021 202.294C538.021 202.294 502.225 204.487 475.447 207.954C472.866 205.551 470.349 203.358 469.204 202.794C466.687 201.552 456.186 196.166 452.04 196.73C451.959 196.714 451.879 196.682 451.814 196.682C447.894 196.214 452.314 202.487 441.667 203.407C434.376 204.036 429.456 205.535 425.261 205.519C424.197 205.213 423.116 204.906 422.051 204.6C416.55 201.584 400.516 193.586 396.902 191.457C392.982 189.167 391.869 189.619 389.062 186.41C386.449 183.41 383.852 181.637 382.158 181.782C381.561 181.637 380.883 181.556 380.077 181.556C379.803 181.475 379.383 181.508 378.851 181.62C378.367 181.669 377.867 181.733 377.302 181.83C375.334 182.185 373.237 183.314 371.124 184.797C363.671 188.474 354.202 194.07 352.443 195.118C347.378 189.2 345.394 183.668 345.394 183.668C345.394 183.668 337.376 174.412 332.327 174.412C327.278 174.412 325.536 172.622 320.503 172.622C318.97 172.622 317.518 173.235 316.131 173.977C313.131 175.267 312.13 175.993 310.808 176.654C310.421 176.75 310.033 176.799 309.662 176.783C304.242 173.154 298.225 165.285 293.531 164.043C292.337 163.527 290.885 163.269 288.885 163.447C283.852 163.914 274.899 166.204 270.979 165.753C268.914 165.511 267.785 164.898 266.446 164.962C266.139 164.882 265.946 164.833 265.946 164.833C265.946 164.833 266.042 164.898 266.155 164.979C265.01 165.124 263.671 165.785 261.461 167.591C256.428 171.735 248.588 173.106 248.023 174.944C246.136 176.492 240.667 194.392 239.006 201.875C234.441 200.504 229.537 199.424 224.245 199.117C223.891 204.229 171.205 191.377 166.72 197.214C162.236 203.052 131.311 221.403 106.275 224.419C105.065 224.564 73.8505 220.758 69.382 221C57.9609 220.887 40.942 209.212 37.1027 209.405C27.6173 209.873 0 222.548 0 222.548V264.068H1920.05V234.377V194.686V264.068V249.003V235.525H1920.06V179.798Z" fill="#0B0B0C"/>
<path fill-rule="evenodd" clip-rule="evenodd" d="M578.375 213.201L553.625 217.734L474.874 220L469.249 209.802C469.249 209.802 461 192.124 462.499 169.01C463.154 160.662 463.025 147.66 460.249 139.551C457.474 131.44 457.58 130.96 456.874 124.819C457.404 125.059 455.192 124.412 454.624 124.819C454.861 124.804 453.307 116.109 448.999 107.824C449.191 108.017 448.344 115.096 448.999 115.755C448.963 115.948 447.874 115.755 447.874 115.755C447.874 115.755 446.554 110.267 446.749 104.424C446.714 104.622 445.624 104.424 445.624 104.424C445.624 104.424 443.726 109.75 443.374 112.357C443.893 112.844 442.249 112.357 442.249 112.357C442.249 112.357 442.457 104.573 443.374 102.159C444.292 99.743 444.014 90.1333 443.374 88.5606C442.735 86.989 438.37 75.8655 444.499 65.8988C445.336 64.2581 444.499 60.2334 444.499 60.2334C444.499 60.2334 441.371 62.7488 441.124 64.7657C441.429 65.0071 440 64.7657 440 64.7657C440 64.7657 440.742 61.7075 442.249 59.1003C442.452 59.0199 440.64 48.5025 446.749 43.2371C452.859 37.9727 462.151 35.2884 464.749 31.9062C464.933 31.8926 465.391 28.397 468.124 28.5069C468.091 28.431 468.437 24.549 468.124 22.8415C467.906 23.0998 467.28 22.0959 465.875 21.7084C465.769 22.071 463.256 7.61163 469.249 2.44588C475.243 -2.71761 484.189 1.20061 486.124 5.84514C488.06 11.5004 486.79 17.9375 486.124 19.4422C485.459 20.9481 485.448 26.9931 483.874 28.5069C484.066 29.6071 482.496 32.2223 485 33.0393C487.503 33.8574 496.886 33.0041 499.624 39.8378C502.363 46.9887 508.456 60.6458 502.999 65.8988C502.812 66.0507 509.675 85.0537 508.625 99.8926C508.891 100.443 509.007 104.366 510.874 106.691C512.741 109.535 519.45 117.539 522.124 123.687C522.266 124.017 532.425 132.445 533.374 135.018C534.323 137.59 534.148 153.728 533.374 165.612C532.601 177.494 533.374 186.006 533.374 186.006C533.374 186.006 539.34 186.929 540.125 189.407C540.868 189.333 549.095 184.722 552.5 186.006C553.107 186.271 561.993 171.779 570.5 181.475C579.006 191.17 584 198.471 584 198.471L578.375 213.201ZM521 166.745C519.357 159.012 519.077 145.111 518.749 145.216C517.28 142.483 509.866 146.031 509.749 146.349C504.456 137.236 485.495 127.015 485 127.087C479.165 141.035 482.749 157.68 482.749 157.68C482.749 157.68 477.958 161.212 477.124 161.079C476.507 161.866 476.371 165.736 475.999 169.01C475.628 172.285 477.893 174.17 477.124 190.54C476.355 206.908 479.251 210.788 478.249 209.802C489.872 200.962 511.449 197.173 514.249 197.338C517.566 197.503 524.375 196.205 524.375 196.205C524.375 194.211 523.188 174.477 521 166.745Z" fill="#0B0B0C"/>
</g>
<defs>
<clipPath id="clip0_717_2103">
<rect width="1920" height="264" fill="white"/>
</clipPath>
</defs>
</svg>
